<svg id="logo" xmlns="http://www.w3.org/2000/svg" viewBox="0 0 128.8 20.36">
<path data-name="logo" d="M21.84,39.52a2.575,2.575,0,0,1-1.12.28c-1.76,0-2.44-1.24-2.44-3.56,0-2.56.08-5.16.08-8.36,0-4.84-3.2-6.84-8.8-6.84-4.4,0-7.4,2.24-7.4,4.96a2.992,2.992,0,0,0,3.2,3.08,2.768,2.768,0,0,0,2.88-1.96,1.6,1.6,0,0,1-.6.12c-1.16,0-1.84-.88-1.84-2.24,0-1.76,1.04-3.2,3.68-3.2,2.96,0,4.16,2.32,4.16,4.96v2.8l-3.04.56c-4.8.88-9.28,1.84-9.28,6.2,0,3.36,2.6,4.96,5.76,4.96a6.621,6.621,0,0,0,6.6-5.12c0,.36.08,1.48.08,1.64a3.726,3.726,0,0,0,4.08,3.52,5.143,5.143,0,0,0,4-1.72Zm-8.2-9.2-.08,3.56c-.04,3.32-2.12,5.32-4.44,5.32-1.76,0-3.04-1.04-3.04-3.48,0-2.8,1.64-4.24,5.2-4.96ZM43.92,41.4H44l6.44-15.52c1.16-2.76,1.76-3.36,3.08-4.36v-.08H47.76v.08a2.537,2.537,0,0,1,1.8,2.52,5.689,5.689,0,0,1-.4,1.92L45.6,34.92l-3.52-9.2a8.622,8.622,0,0,1-.64-2.4,1.77,1.77,0,0,1,1.2-1.8v-.08H34.56v.08c1.32,1,1.8,1.56,3,4.24l.36.92-3.6,8.36-3.96-9.32a8.5,8.5,0,0,1-.64-2.44,1.716,1.716,0,0,1,1.08-1.76v-.08H22.68v.08c1.32,1,1.8,1.6,3,4.24L32.52,41.4h.08l5.88-13.36Zm33-1.88a2.575,2.575,0,0,1-1.12.28c-1.76,0-2.44-1.24-2.44-3.56,0-2.56.08-5.16.08-8.36,0-4.84-3.2-6.84-8.8-6.84-4.4,0-7.4,2.24-7.4,4.96a2.992,2.992,0,0,0,3.2,3.08,2.768,2.768,0,0,0,2.88-1.96,1.6,1.6,0,0,1-.6.12c-1.16,0-1.84-.88-1.84-2.24,0-1.76,1.04-3.2,3.68-3.2,2.96,0,4.16,2.32,4.16,4.96v2.8l-3.04.56c-4.8.88-9.28,1.84-9.28,6.2,0,3.36,2.6,4.96,5.76,4.96a6.621,6.621,0,0,0,6.6-5.12c0,.36.08,1.48.08,1.64a3.726,3.726,0,0,0,4.08,3.52,5.143,5.143,0,0,0,4-1.72Zm-8.2-9.2-.08,3.56c-.04,3.32-2.12,5.32-4.44,5.32-1.76,0-3.04-1.04-3.04-3.48,0-2.8,1.64-4.24,5.2-4.96Zm23.76-2.68a1.842,1.842,0,0,0,1.32.48,3.313,3.313,0,0,0,3.28-3.56,3.572,3.572,0,0,0-3.88-3.52c-3.56,0-5.56,3.32-6.48,7.04V21.44h-7v.08c1.92.88,2.36,1.92,2.36,4.32v10.8c0,2.64-.28,3.4-2.16,4.28V41H90.08v-.08c-2.24-.76-3.36-1.64-3.36-4.28V31.52c0-4.32,2.2-7.68,4.72-7.68,1.4,0,2.24.76,2.24,1.96A1.9,1.9,0,0,1,92.48,27.64Zm17.8-6.6c-5.24,0-9.68,4.12-9.68,10.2,0,6.44,4.44,10.16,9.76,10.16,4.44,0,7.72-2.4,8.6-6.68l-.28-.12a6.552,6.552,0,0,1-6.4,4.52c-4.32,0-6.96-3.52-6.96-8.72h13.6C118.92,24.96,116.24,21.04,110.28,21.04Zm-4.88,8.52c.16-4.72,2.24-7.76,4.84-7.76,3.32,0,3.96,3.56,3.96,7.76Zm24.72,8.68A3.108,3.108,0,0,0,127,35.08a3.141,3.141,0,0,0,0,6.28A3.124,3.124,0,0,0,130.12,38.24Z" transform="translate(-1.32 -21.04)"/>
</svg>